<?xml version="1.0" encoding="utf-8"?>
<!-- Generator: Adobe Illustrator 27.5.0, SVG Export Plug-In . SVG Version: 6.00 Build 0)  -->
<svg version="1.1" id="Calque_1" xmlns="http://www.w3.org/2000/svg" xmlns:xlink="http://www.w3.org/1999/xlink" x="0px" y="0px"
	 viewBox="0 0 699.1 128.5" style="enable-background:new 0 0 699.1 128.5;" xml:space="preserve">
<g id="Calque_2_00000012473568212028284200000012565092187671072941_">
	<g>
		<path d="M0,0h50.8C78.4,0,95,19.6,95,42.7S78.8,84.5,50.4,84.5H27.8v44H0V0z M46.7,61.2c14,0,20.6-8.5,20.6-18.7
			c0-10.8-7.6-18.9-20.2-18.9H27.8v37.6H46.7z"/>
		<path d="M233.7,127.9v0.6h-31.4l-27-46.1h-14.7v46.1h-27.8V0h51.8c27,0,45.2,17.6,45.2,41.2c0,17.2-10.4,31.2-27.4,37.6
			L233.7,127.9z M181.4,60.3c12.7,0,20.4-7.4,20.4-18.3c0-10.8-8.1-18.5-20.2-18.5h-21v36.8H181.4z"/>
		<path d="M270.6,0h27.8v128.5h-27.8V0z"/>
		<path d="M463.3,0v0.4l-61.2,128.7h-8.3L332.5,0.6V0h30.6l27.8,61c2.6,6.4,4.9,12.1,7.2,18.1c2.3-6.6,4.9-13,7.4-18.5L432.9,0
			H463.3z"/>
		<path d="M593.6,127.9v0.6h-28.9l-8.9-20.2h-54.2l-8.9,20.2h-29.1v-0.6L524.4-0.6h8.3L593.6,127.9z M519.6,65.9L510,87.6h37.6
			l-9.8-21.7c-3-7.2-5.9-13.8-9.1-23.2C525.6,52,522.8,58.8,519.6,65.9z"/>
		<path d="M699.1,25.5h-34.8v103h-27.8v-103h-34.8V0H699L699.1,25.5L699.1,25.5z"/>
	</g>
</g>
<g id="Calque_1_00000124130506295951543340000015618494322923813519_">
</g>
</svg>
